<svg xmlns="http://www.w3.org/2000/svg" xmlns:xlink="http://www.w3.org/1999/xlink" width="1200" height="630" viewBox="0 0 1200 630"><defs><clipPath id="b"><rect width="1200" height="630"/></clipPath></defs><g id="a" clip-path="url(#b)"><rect width="1200" height="630" fill="#fff"/><g transform="translate(-133.5 -10.5)"><line x2="215" transform="translate(626.5 321.5)" fill="none" stroke="#d97925" stroke-width="4"/><line y1="103" x2="59" transform="translate(645.5 218.5)" fill="none" stroke="#d97925" stroke-linecap="round" stroke-width="3"/><line x1="59" y1="103" transform="translate(704.5 218.5)" fill="none" stroke="#d97925" stroke-width="3"/><line y1="52" x2="29" transform="translate(734.5 218.5)" fill="none" stroke="#d97925" stroke-linecap="round" stroke-width="3"/><line x1="60" y1="103" transform="translate(763.5 218.5)" fill="none" stroke="#d97925" stroke-width="3"/><path d="M727.729,323.47S700.905,336.8,698.048,347.6s.363,18.365,2.378,20.469a3.871,3.871,0,0,0,.57.57c2.484,2.526,15.188,5.475,28.32,5.626,13.809.159,12.8,16.122,10.634,21.745s-23.332,10.475-23.332,10.475-7.3.476-11.11,16.189-2.516,10.618-2.516,10.618" transform="translate(0 -2)" fill="none" stroke="#d97925" stroke-linecap="round" stroke-width="3"/><path d="M740.109,323.47a7.212,7.212,0,0,0-3.892,1.573,18.436,18.436,0,0,0-5.382,6.774,37.833,37.833,0,0,0-2.226,5.42c-.294.869-.677,2.145-1.04,3.533-4.6,17.618,13.657,14.276,13.657,14.276h.1c.016,0,19.11.026,26.871,8.262a4.646,4.646,0,0,1,.73.773c7.141,7.562,9.078,9.48,7.682,27-1.288,16.178-11.127,18.816-13.167,20.119.1-.018-.013,0-.013,0s-9.517,4.956-9.041,15.431,0,7.777,0,7.777" transform="translate(1 -2)" fill="none" stroke="#d97925" stroke-linecap="round" stroke-width="3"/><path d="M712.333,345.691c.317,1.428-1.746,10.317,5.4,12.856" fill="none" stroke="#d97925" stroke-linecap="round" stroke-width="2"/><path d="M739.792,365.055s9.841-.159,14.443,6.19" fill="none" stroke="#d97925" stroke-linecap="round" stroke-width="2"/><path d="M756.775,391.879l-10.317,13.65" fill="none" stroke="#d97925" stroke-linecap="round" stroke-width="2"/><path d="M730.9,420.607s-4.762,7.46-3.333,12.539" fill="none" stroke="#d97925" stroke-linecap="round" stroke-width="2"/></g></g></svg>